# Blender 3.6.4
# www.blender.org
mtllib Walls.mtl
o Plane.002
v -1.000000 0.000000 0.000000
v -1.000000 2.000000 -0.000000
v -1.000000 -0.000000 -2.000000
v -1.000000 2.000000 -2.000000
v -1.000000 2.000000 -0.000000
v 1.000000 2.000000 -0.000000
v -1.000000 2.000000 -2.000000
v 1.000000 2.000000 -2.000000
v 1.000000 2.000000 -0.000000
v -1.000000 2.000000 -2.000000
v 1.000000 2.000000 -2.000000
v -1.000000 0.000000 0.000000
v -1.000000 -0.000000 -2.000000
v -1.000000 2.000000 -0.000000
v 1.000000 2.000000 -0.000000
v -1.000000 2.000000 -2.000000
v 1.000000 2.000000 -2.000000
v -1.000000 0.000000 0.000000
v -1.000000 -0.000000 -2.000000
v -1.000000 2.000000 -0.000000
v 1.000000 2.000000 -0.000000
v -1.000000 2.000000 -2.000000
v 1.000000 2.000000 -2.000000
v -1.000000 0.000000 2.000000
v -1.000000 2.000000 2.000000
v -1.000000 0.000000 0.000000
v -1.000000 2.000000 -0.000000
v -1.000000 2.000000 2.000000
v 1.000000 2.000000 2.000000
v -1.000000 2.000000 -0.000000
v 1.000000 2.000000 -0.000000
v -1.000000 0.000000 4.000000
v -1.000000 2.000000 4.000000
v -1.000000 0.000000 2.000000
v -1.000000 2.000000 2.000000
v -1.000000 2.000000 4.000000
v 1.000000 2.000000 4.000000
v -1.000000 2.000000 2.000000
v 1.000000 2.000000 2.000000
v -1.000000 0.000000 6.000000
v -1.000000 2.000000 6.000000
v -1.000000 0.000000 4.000000
v -1.000000 2.000000 4.000000
v -1.000000 2.000000 6.000000
v 1.000000 2.000000 6.000000
v -1.000000 2.000000 4.000000
v 1.000000 2.000000 4.000000
v -1.000000 -0.000001 -8.000000
v -1.000000 1.999999 -8.000000
v -1.000000 -0.000001 -10.000000
v -1.000000 1.999999 -10.000000
v -1.000000 1.999999 -8.000000
v 1.000000 1.999999 -8.000000
v -1.000000 1.999999 -10.000000
v 1.000000 1.999999 -10.000000
v -1.000000 -0.000000 -6.000000
v -1.000000 2.000000 -6.000000
v -1.000000 -0.000001 -8.000000
v -1.000000 1.999999 -8.000000
v -1.000000 2.000000 -6.000000
v 1.000000 2.000000 -6.000000
v -1.000000 1.999999 -8.000000
v 1.000000 1.999999 -8.000000
v -1.000000 -0.000000 -4.000000
v -1.000000 2.000000 -4.000000
v -1.000000 -0.000000 -6.000000
v -1.000000 2.000000 -6.000000
v -1.000000 2.000000 -4.000000
v 1.000000 2.000000 -4.000000
v -1.000000 2.000000 -6.000000
v 1.000000 2.000000 -6.000000
v -1.000000 -0.000000 -2.000000
v -1.000000 2.000000 -2.000000
v -1.000000 -0.000000 -4.000000
v -1.000000 2.000000 -4.000000
v -1.000000 2.000000 -2.000000
v 1.000000 2.000000 -2.000000
v -1.000000 2.000000 -4.000000
v 1.000000 2.000000 -4.000000
v -1.000000 0.000001 8.000000
v -1.000000 2.000001 8.000000
v -1.000000 0.000000 6.000000
v -1.000000 2.000000 6.000000
v -1.000000 2.000001 8.000000
v 1.000000 2.000001 8.000000
v -1.000000 2.000000 6.000000
v 1.000000 2.000000 6.000000
v -1.000000 0.000001 10.000000
v -1.000000 2.000001 10.000000
v -1.000000 0.000001 8.000000
v -1.000000 2.000001 8.000000
v -1.000000 2.000001 10.000000
v 1.000000 2.000001 10.000000
v -1.000000 2.000001 8.000000
v 1.000000 2.000001 8.000000
v -1.000000 2.000001 12.000000
v 1.000000 2.000001 12.000000
v -1.000000 2.000001 10.000000
v 1.000000 2.000001 10.000000
v -1.000000 1.999999 -10.000000
v 1.000000 1.999999 -10.000000
v -1.000000 1.999999 -12.000000
v 1.000000 1.999999 -12.000000
v -11.000000 -0.000001 -10.000000
v -11.000000 1.999999 -10.000000
v -13.000000 -0.000001 -10.000000
v -13.000000 1.999999 -10.000000
v -11.000000 1.999999 -10.000000
v -11.000000 1.999999 -12.000000
v -13.000000 1.999999 -10.000000
v -13.000000 1.999999 -12.000000
v -9.000000 -0.000001 -10.000000
v -9.000000 1.999999 -10.000000
v -11.000000 -0.000001 -10.000000
v -11.000000 1.999999 -10.000000
v -9.000000 1.999999 -10.000000
v -9.000000 1.999999 -12.000000
v -11.000000 1.999999 -10.000000
v -11.000000 1.999999 -12.000000
v -7.000000 -0.000001 -10.000000
v -7.000000 1.999999 -10.000000
v -9.000000 -0.000001 -10.000000
v -9.000000 1.999999 -10.000000
v -7.000000 1.999999 -10.000000
v -7.000000 1.999999 -12.000000
v -9.000000 1.999999 -10.000000
v -9.000000 1.999999 -12.000000
v -5.000000 -0.000001 -10.000000
v -5.000000 1.999999 -10.000000
v -7.000000 -0.000001 -10.000000
v -7.000000 1.999999 -10.000000
v -5.000000 1.999999 -10.000000
v -5.000000 1.999999 -12.000000
v -7.000000 1.999999 -10.000000
v -7.000000 1.999999 -12.000000
v -19.000000 -0.000001 -10.000000
v -19.000000 1.999999 -10.000000
v -20.999998 -0.000001 -10.000000
v -20.999998 1.999999 -10.000000
v -19.000000 1.999999 -10.000000
v -19.000000 1.999999 -12.000000
v -20.999998 1.999999 -10.000000
v -20.999998 1.999999 -12.000000
v -17.000000 -0.000001 -10.000000
v -17.000000 1.999999 -10.000000
v -19.000000 -0.000001 -10.000000
v -19.000000 1.999999 -10.000000
v -17.000000 1.999999 -10.000000
v -17.000000 1.999999 -12.000000
v -19.000000 1.999999 -10.000000
v -19.000000 1.999999 -12.000000
v -15.000000 -0.000001 -10.000000
v -15.000000 1.999999 -10.000000
v -17.000000 -0.000001 -10.000000
v -17.000000 1.999999 -10.000000
v -15.000000 1.999999 -10.000000
v -15.000000 1.999999 -12.000000
v -17.000000 1.999999 -10.000000
v -17.000000 1.999999 -12.000000
v -13.000000 -0.000001 -10.000000
v -13.000000 1.999999 -10.000000
v -15.000000 -0.000001 -10.000000
v -15.000000 1.999999 -10.000000
v -13.000000 1.999999 -10.000000
v -13.000000 1.999999 -12.000000
v -15.000000 1.999999 -10.000000
v -15.000000 1.999999 -12.000000
v -3.000000 -0.000001 -10.000000
v -3.000000 1.999999 -10.000000
v -5.000000 -0.000001 -10.000000
v -5.000000 1.999999 -10.000000
v -3.000000 1.999999 -10.000000
v -3.000000 1.999999 -12.000000
v -5.000000 1.999999 -10.000000
v -5.000000 1.999999 -12.000000
v -1.000000 -0.000001 -10.000000
v -1.000000 1.999999 -10.000000
v -3.000000 -0.000001 -10.000000
v -3.000000 1.999999 -10.000000
v -1.000000 1.999999 -10.000000
v -1.000000 1.999999 -12.000000
v -3.000000 1.999999 -10.000000
v -3.000000 1.999999 -12.000000
v -20.999998 0.000000 0.000002
v -21.000000 2.000000 0.000002
v -20.999998 0.000000 2.000003
v -20.999998 2.000000 2.000003
v -21.000000 2.000000 0.000002
v -23.000000 2.000000 0.000003
v -20.999998 2.000000 2.000003
v -22.999998 2.000000 2.000003
v -21.000000 -0.000000 -1.999998
v -21.000000 2.000000 -1.999998
v -20.999998 0.000000 0.000002
v -21.000000 2.000000 0.000002
v -21.000000 2.000000 -1.999998
v -23.000000 2.000000 -1.999997
v -21.000000 2.000000 0.000002
v -23.000000 2.000000 0.000003
v -21.000000 -0.000000 -3.999998
v -21.000000 2.000000 -3.999998
v -21.000000 -0.000000 -1.999998
v -21.000000 2.000000 -1.999998
v -21.000000 2.000000 -3.999998
v -23.000000 2.000000 -3.999998
v -21.000000 2.000000 -1.999998
v -23.000000 2.000000 -1.999997
v -21.000000 -0.000000 -5.999998
v -21.000000 2.000000 -5.999998
v -21.000000 -0.000000 -3.999998
v -21.000000 2.000000 -3.999998
v -21.000000 2.000000 -5.999998
v -23.000000 2.000000 -5.999998
v -21.000000 2.000000 -3.999998
v -23.000000 2.000000 -3.999998
v -20.999998 0.000001 8.000003
v -20.999998 2.000001 8.000003
v -20.999998 0.000001 10.000002
v -20.999998 2.000001 10.000002
v -20.999998 2.000001 8.000003
v -22.999998 2.000001 8.000003
v -20.999998 2.000001 10.000002
v -22.999998 2.000001 10.000003
v -20.999998 0.000000 6.000003
v -20.999998 2.000000 6.000003
v -20.999998 0.000001 8.000003
v -20.999998 2.000001 8.000003
v -20.999998 2.000000 6.000003
v -22.999998 2.000000 6.000003
v -20.999998 2.000001 8.000003
v -22.999998 2.000001 8.000003
v -20.999998 0.000000 4.000002
v -20.999998 2.000000 4.000002
v -20.999998 0.000000 6.000003
v -20.999998 2.000000 6.000003
v -20.999998 2.000000 4.000002
v -22.999998 2.000000 4.000003
v -20.999998 2.000000 6.000003
v -22.999998 2.000000 6.000003
v -20.999998 0.000000 2.000003
v -20.999998 2.000000 2.000003
v -20.999998 0.000000 4.000002
v -20.999998 2.000000 4.000002
v -20.999998 2.000000 2.000003
v -22.999998 2.000000 2.000003
v -20.999998 2.000000 4.000002
v -22.999998 2.000000 4.000003
v -21.000000 -0.000001 -7.999998
v -21.000000 1.999999 -7.999998
v -21.000000 -0.000000 -5.999998
v -21.000000 2.000000 -5.999998
v -21.000000 1.999999 -7.999998
v -23.000000 1.999999 -7.999998
v -21.000000 2.000000 -5.999998
v -23.000000 2.000000 -5.999998
v -21.000000 -0.000001 -9.999998
v -21.000000 1.999999 -9.999998
v -21.000000 -0.000001 -7.999998
v -21.000000 1.999999 -7.999998
v -21.000000 1.999999 -9.999998
v -23.000000 1.999999 -9.999998
v -21.000000 1.999999 -7.999998
v -23.000000 1.999999 -7.999998
v -21.000002 1.999999 -11.999998
v -23.000002 1.999999 -11.999998
v -21.000000 1.999999 -9.999998
v -23.000000 1.999999 -9.999998
v -20.999998 2.000001 10.000002
v -22.999998 2.000001 10.000003
v -20.999998 2.000001 12.000002
v -22.999998 2.000001 12.000003
v -10.999997 0.000001 10.000001
v -10.999998 2.000001 10.000001
v -8.999996 0.000002 10.000001
v -8.999998 2.000001 10.000001
v -10.999998 2.000001 10.000001
v -10.999997 2.000001 12.000001
v -8.999998 2.000001 10.000001
v -8.999996 2.000001 12.000001
v -12.999998 0.000001 10.000002
v -12.999998 2.000001 10.000002
v -10.999997 0.000001 10.000001
v -10.999998 2.000001 10.000001
v -12.999998 2.000001 10.000002
v -12.999998 2.000001 12.000002
v -10.999998 2.000001 10.000001
v -10.999997 2.000001 12.000001
v -14.999998 0.000001 10.000002
v -14.999998 2.000001 10.000002
v -12.999998 0.000001 10.000002
v -12.999998 2.000001 10.000002
v -14.999998 2.000001 10.000002
v -14.999998 2.000001 12.000002
v -12.999998 2.000001 10.000002
v -12.999998 2.000001 12.000002
v -16.999998 0.000001 10.000002
v -16.999998 2.000001 10.000002
v -14.999998 0.000001 10.000002
v -14.999998 2.000001 10.000002
v -16.999998 2.000001 10.000002
v -16.999998 2.000001 12.000002
v -14.999998 2.000001 10.000002
v -14.999998 2.000001 12.000002
v -2.999998 0.000001 10.000000
v -2.999998 2.000001 10.000000
v -1.000000 0.000001 10.000000
v -1.000000 2.000001 10.000000
v -2.999998 2.000001 10.000000
v -2.999998 2.000001 12.000000
v -1.000000 2.000001 10.000000
v -1.000000 2.000001 12.000000
v -4.999998 0.000001 10.000000
v -4.999998 2.000001 10.000000
v -2.999998 0.000001 10.000000
v -2.999998 2.000001 10.000000
v -4.999998 2.000001 10.000000
v -4.999998 2.000001 12.000000
v -2.999998 2.000001 10.000000
v -2.999998 2.000001 12.000000
v -6.999998 0.000001 10.000000
v -6.999998 2.000001 10.000000
v -4.999998 0.000001 10.000000
v -4.999998 2.000001 10.000000
v -6.999998 2.000001 10.000000
v -6.999998 2.000001 12.000000
v -4.999998 2.000001 10.000000
v -4.999998 2.000001 12.000000
v -8.999996 0.000002 10.000001
v -8.999998 2.000001 10.000001
v -6.999998 0.000001 10.000000
v -6.999998 2.000001 10.000000
v -8.999998 2.000001 10.000001
v -8.999996 2.000001 12.000001
v -6.999998 2.000001 10.000000
v -6.999998 2.000001 12.000000
v -18.999998 0.000001 10.000002
v -18.999998 2.000001 10.000002
v -16.999998 0.000001 10.000002
v -16.999998 2.000001 10.000002
v -18.999998 2.000001 10.000002
v -18.999998 2.000001 12.000002
v -16.999998 2.000001 10.000002
v -16.999998 2.000001 12.000002
v -20.999998 0.000001 10.000002
v -20.999998 2.000001 10.000002
v -18.999998 0.000001 10.000002
v -18.999998 2.000001 10.000002
v -20.999998 2.000001 10.000002
v -20.999998 2.000001 12.000002
v -18.999998 2.000001 10.000002
v -18.999998 2.000001 12.000002
v -23.000000 0.000000 0.000002
v -22.999998 2.000000 0.000002
v -23.000000 0.000000 -2.000000
v -23.000000 2.000000 -1.999999
v -22.999998 -0.000000 2.000001
v -22.999998 2.000000 2.000002
v -23.000000 0.000000 0.000002
v -22.999998 2.000000 0.000002
v -22.999998 -0.000000 4.000002
v -22.999998 2.000000 4.000002
v -22.999998 -0.000000 2.000001
v -22.999998 2.000000 2.000002
v -22.999998 -0.000001 6.000002
v -22.999998 2.000000 6.000002
v -22.999998 -0.000000 4.000002
v -22.999998 2.000000 4.000002
v -22.999998 0.000001 -7.999999
v -22.999998 2.000000 -7.999999
v -22.999998 0.000001 -9.999998
v -22.999998 2.000001 -9.999998
v -23.000000 0.000000 -5.999999
v -23.000000 2.000000 -5.999999
v -22.999998 0.000001 -7.999999
v -22.999998 2.000000 -7.999999
v -23.000000 0.000000 -3.999998
v -23.000000 2.000000 -3.999998
v -23.000000 0.000000 -5.999999
v -23.000000 2.000000 -5.999999
v -23.000000 0.000000 -2.000000
v -23.000000 2.000000 -1.999999
v -23.000000 0.000000 -3.999998
v -23.000000 2.000000 -3.999998
v -23.000000 -0.000001 8.000002
v -23.000000 1.999999 8.000002
v -22.999998 -0.000001 6.000002
v -22.999998 2.000000 6.000002
v -23.000000 -0.000001 10.000002
v -23.000000 1.999999 10.000002
v -23.000000 -0.000001 8.000002
v -23.000000 1.999999 8.000002
v -22.999998 0.000001 -9.999998
v -22.999998 2.000001 -9.999998
v -22.999998 0.000001 -11.999997
v -22.999998 2.000001 -11.999997
v -23.000000 -0.000001 12.000002
v -23.000000 1.999999 12.000002
v -23.000000 -0.000001 10.000002
v -23.000000 1.999999 10.000002
v -21.001293 0.000000 0.000001
v -21.001295 2.000000 0.000001
v -21.000645 0.000000 2.000002
v -21.000645 2.000000 2.000001
v -21.001944 -0.000000 -1.999999
v -21.001944 2.000000 -1.999999
v -21.001293 0.000000 0.000001
v -21.001295 2.000000 0.000001
v -21.002590 -0.000000 -3.999998
v -21.002590 2.000000 -3.999998
v -21.001944 -0.000000 -1.999999
v -21.001944 2.000000 -1.999999
v -21.003239 -0.000000 -5.999998
v -21.003239 2.000000 -5.999998
v -21.002590 -0.000000 -3.999998
v -21.002590 2.000000 -3.999998
v -20.998705 0.000001 8.000001
v -20.998705 2.000001 8.000001
v -20.998056 0.000001 9.999998
v -20.998056 2.000001 9.999998
v -20.999350 0.000000 6.000001
v -20.999350 2.000000 6.000001
v -20.998705 0.000001 8.000001
v -20.998705 2.000001 8.000001
v -20.999998 0.000000 4.000000
v -20.999998 2.000000 4.000001
v -20.999350 0.000000 6.000001
v -20.999350 2.000000 6.000001
v -21.000645 0.000000 2.000002
v -21.000645 2.000000 2.000001
v -20.999998 0.000000 4.000000
v -20.999998 2.000000 4.000001
v -21.003883 -0.000001 -7.999998
v -21.003883 1.999999 -7.999998
v -21.003239 -0.000000 -5.999998
v -21.003239 2.000000 -5.999998
v -21.004532 -0.000001 -9.999998
v -21.004532 1.999999 -9.999998
v -21.003883 -0.000001 -7.999998
v -21.003883 1.999999 -7.999998
v -20.998056 0.000001 9.999998
v -20.998056 2.000001 9.999998
v -20.997408 0.000001 11.999999
v -20.997408 2.000001 11.999999
v -21.005180 -0.000001 -11.999998
v -21.005180 1.999999 -11.999998
v -21.004532 -0.000001 -9.999998
v -21.004532 1.999999 -9.999998
vn -1.0000 -0.0000 -0.0000
vn -0.0000 1.0000 -0.0000
vn -0.0000 -0.0000 1.0000
vn -0.0000 -0.0000 -0.0000
vn -0.7071 -0.0000 -0.7071
vn -0.0000 -1.0000 -0.0000
vn -0.0000 -0.0000 -1.0000
vn 1.0000 -0.0000 -0.0003
vt 0.000000 0.000000
vt 1.000000 0.000000
vt 1.000000 1.000000
vt 0.000000 1.000000
s 0
usemtl cherry_leaves.001
f 1/1/1 2/2/1 4/3/1 3/4/1
f 5/1/2 6/2/2 8/3/2 7/4/2
f 16/1/1 17/1/3 23/1/1 22/1/3
f 17/1/4 15/1/4 21/1/4 23/1/4
f 12/1/4 13/1/4 19/1/5 18/1/6
f 24/1/1 25/2/1 27/3/1 26/4/1
f 28/1/2 29/2/2 31/3/2 30/4/2
f 32/1/1 33/2/1 35/3/1 34/4/1
f 36/1/2 37/2/2 39/3/2 38/4/2
f 40/1/1 41/2/1 43/3/1 42/4/1
f 44/1/2 45/2/2 47/3/2 46/4/2
f 48/1/1 49/2/1 51/3/1 50/4/1
f 52/1/2 53/2/2 55/3/2 54/4/2
f 56/1/1 57/2/1 59/3/1 58/4/1
f 60/1/2 61/2/2 63/3/2 62/4/2
f 64/1/1 65/2/1 67/3/1 66/4/1
f 68/1/2 69/2/2 71/3/2 70/4/2
f 72/1/1 73/2/1 75/3/1 74/4/1
f 76/1/2 77/2/2 79/3/2 78/4/2
f 80/1/1 81/2/1 83/3/1 82/4/1
f 84/1/2 85/2/2 87/3/2 86/4/2
f 88/1/1 89/2/1 91/3/1 90/4/1
f 92/1/2 93/2/2 95/3/2 94/4/2
f 96/1/2 97/2/2 99/3/2 98/4/2
f 100/1/2 101/2/2 103/3/2 102/4/2
f 104/1/3 105/2/3 107/3/3 106/4/3
f 108/1/2 109/2/2 111/3/2 110/4/2
f 112/1/3 113/2/3 115/3/3 114/4/3
f 116/1/2 117/2/2 119/3/2 118/4/2
f 120/1/3 121/2/3 123/3/3 122/4/3
f 124/1/2 125/2/2 127/3/2 126/4/2
f 128/1/3 129/2/3 131/3/3 130/4/3
f 132/1/2 133/2/2 135/3/2 134/4/2
f 136/1/3 137/2/3 139/3/3 138/4/3
f 140/1/2 141/2/2 143/3/2 142/4/2
f 144/1/3 145/2/3 147/3/3 146/4/3
f 148/1/2 149/2/2 151/3/2 150/4/2
f 152/1/3 153/2/3 155/3/3 154/4/3
f 156/1/2 157/2/2 159/3/2 158/4/2
f 160/1/3 161/2/3 163/3/3 162/4/3
f 164/1/2 165/2/2 167/3/2 166/4/2
f 168/1/3 169/2/3 171/3/3 170/4/3
f 172/1/2 173/2/2 175/3/2 174/4/2
f 176/1/3 177/2/3 179/3/3 178/4/3
f 180/1/2 181/2/2 183/3/2 182/4/2
f 188/1/2 189/2/2 191/3/2 190/4/2
f 196/1/2 197/2/2 199/3/2 198/4/2
f 204/1/2 205/2/2 207/3/2 206/4/2
f 212/1/2 213/2/2 215/3/2 214/4/2
f 220/1/2 221/2/2 223/3/2 222/4/2
f 228/1/2 229/2/2 231/3/2 230/4/2
f 236/1/2 237/2/2 239/3/2 238/4/2
f 244/1/2 245/2/2 247/3/2 246/4/2
f 252/1/2 253/2/2 255/3/2 254/4/2
f 260/1/2 261/2/2 263/3/2 262/4/2
f 264/1/2 265/2/2 267/3/2 266/4/2
f 268/1/2 269/2/2 271/3/2 270/4/2
f 272/1/7 273/2/7 275/3/7 274/4/7
f 276/1/2 277/2/2 279/3/2 278/4/2
f 280/1/7 281/2/7 283/3/7 282/4/7
f 284/1/2 285/2/2 287/3/2 286/4/2
f 288/1/7 289/2/7 291/3/7 290/4/7
f 292/1/2 293/2/2 295/3/2 294/4/2
f 296/1/7 297/2/7 299/3/7 298/4/7
f 300/1/2 301/2/2 303/3/2 302/4/2
f 304/1/7 305/2/7 307/3/7 306/4/7
f 308/1/2 309/2/2 311/3/2 310/4/2
f 312/1/7 313/2/7 315/3/7 314/4/7
f 316/1/2 317/2/2 319/3/2 318/4/2
f 320/1/7 321/2/7 323/3/7 322/4/7
f 324/1/2 325/2/2 327/3/2 326/4/2
f 328/1/7 329/2/7 331/3/7 330/4/7
f 332/1/2 333/2/2 335/3/2 334/4/2
f 336/1/7 337/2/7 339/3/7 338/4/7
f 340/1/2 341/2/2 343/3/2 342/4/2
f 344/1/7 345/2/7 347/3/7 346/4/7
f 348/1/2 349/2/2 351/3/2 350/4/2
f 352/1/1 353/2/1 355/3/1 354/4/1
f 356/1/1 357/2/1 359/3/1 358/4/1
f 360/1/1 361/2/1 363/3/1 362/4/1
f 364/1/1 365/2/1 367/3/1 366/4/1
f 368/1/1 369/2/1 371/3/1 370/4/1
f 372/1/1 373/2/1 375/3/1 374/4/1
f 376/1/1 377/2/1 379/3/1 378/4/1
f 380/1/1 381/2/1 383/3/1 382/4/1
f 384/1/1 385/2/1 387/3/1 386/4/1
f 388/1/1 389/2/1 391/3/1 390/4/1
f 392/1/1 393/2/1 395/3/1 394/4/1
f 396/1/1 397/2/1 399/3/1 398/4/1
f 400/1/8 401/2/8 403/3/8 402/4/8
f 404/1/8 405/2/8 407/3/8 406/4/8
f 408/1/8 409/2/8 411/3/8 410/4/8
f 412/1/8 413/2/8 415/3/8 414/4/8
f 416/1/8 417/2/8 419/3/8 418/4/8
f 420/1/8 421/2/8 423/3/8 422/4/8
f 424/1/8 425/2/8 427/3/8 426/4/8
f 428/1/8 429/2/8 431/3/8 430/4/8
f 432/1/8 433/2/8 435/3/8 434/4/8
f 436/1/8 437/2/8 439/3/8 438/4/8
f 440/1/8 441/2/8 443/3/8 442/4/8
f 444/1/8 445/2/8 447/3/8 446/4/8
l 11 9
l 10 11
l 14 20
